<?xml version="1.0" encoding="utf-8"?>
<!-- Generator: Adobe Illustrator 24.1.0, SVG Export Plug-In . SVG Version: 6.00 Build 0)  -->
<svg version="1.1" id="Layer_1" xmlns="http://www.w3.org/2000/svg" xmlns:xlink="http://www.w3.org/1999/xlink" x="0px" y="0px"
	 viewBox="0 0 612 792" style="enable-background:new 0 0 612 792;" xml:space="preserve">
<style type="text/css">
	.st0{stroke:#FFFFFF;stroke-width:3;stroke-miterlimit:10;}
	.st1{fill:#FFFFFF;}
</style>
<path class="st0" d="M389.6,39.9H201.04c-7.04,0-12.8,5.76-12.8,12.8v188.57c0,7.04,5.76,12.8,12.8,12.8h121.38l14.74,73.69
	l39.3-73.69h13.14c7.04,0,12.8-5.76,12.8-12.8V52.71C402.41,45.67,396.64,39.9,389.6,39.9z"/>
<g>
	<path class="st1" d="M327.2,88.76c7.63,0,14.36-0.16,21.08,0.03c13.51,0.39,20.01,6.97,20.14,20.31
		c0.1,10.62-0.29,21.26,0.11,31.87c0.63,16.78-7.41,27.8-21.88,34.88c-16.75,8.19-17.73,10.17-13.81,28.3
		c2.75,12.7,0.05,16.11-12.59,16.1c-22.73-0.02-45.47,0.02-68.2-0.01c-13.87-0.02-14.85-2.56-13.65-16.09
		c2.75-31.03,4.44-62.16,6.06-93.28c0.71-13.72,0.37-27.5,0.18-41.24c-0.07-5.29,1.95-7.11,7.13-7.07c22.73,0.18,45.47,0.24,68.2,0
		c5.95-0.06,7.57,2.48,7.29,7.88C326.97,76,327.2,81.58,327.2,88.76z M329.4,156.86c3.33,0,7.34-0.75,11.04-2.24
		c4.95-1.99,7.01-6.38,7.4-9.81c1.12-9.86,0.77-19.51-0.01-29.38c-0.17-2.19-2.06-6.23-8.99-5.51c-7.94,0.82-11.7-0.31-11.52,10.23
		C327.39,123.54,328.27,156.86,329.4,156.86z"/>
</g>
</svg>
